<?xml version="1.0" encoding="UTF-8"?>
<svg xmlns="http://www.w3.org/2000/svg" version="1.1" viewBox="0 0 2028 1056">
  <!-- Generator: Adobe Illustrator 28.7.2, SVG Export Plug-In . SVG Version: 1.2.0 Build 154)  -->
  <g>
    <g id="Layer_1">
      <g>
        <path d="M1390,506.41c0-23.32-.02-46.65,0-69.97.03-28.64,20.88-49.47,49.53-49.48,46.98-.01,93.95-.01,140.93,0,28.63,0,49.47,20.86,49.48,49.53.02,46.98.02,93.96,0,140.94-.01,28.64-20.88,49.47-49.53,49.48-46.98.01-93.95.01-140.93,0-28.63,0-49.45-20.86-49.48-49.53-.02-23.66,0-47.31,0-70.97Z"/>
        <path d="M1169.96,202.9c0,22.84.03,45.67,0,68.51-.04,24.33-17.23,41.47-41.62,41.49-45.67.03-91.34.04-137.01,0-24.05-.02-41.34-17.25-41.36-41.25-.04-45.84-.05-91.68,0-137.52.02-23.98,17.32-41.22,41.37-41.24,45.84-.04,91.67-.05,137.51,0,23.73.03,41.04,17.32,41.11,41,.06,23,.01,46.01.01,69.01Z"/>
        <path d="M765.01,821.99c0,19.5.04,39,0,58.5-.07,27.54-20.87,48.5-48.33,48.55-39.16.08-78.33.08-117.49,0-27.44-.06-48.27-21.04-48.3-48.58-.05-39-.05-78,0-117,.04-27.53,20.85-48.5,48.33-48.56,39.16-.09,78.33-.09,117.49,0,27.46.06,48.24,21.04,48.31,48.58.05,19.5,0,39,0,58.5Z"/>
        <path d="M292.4,476.95c0,17.49,1.01,35.05-.24,52.45-1.86,25.89-22.01,44-47.91,44.22-32.31.27-64.63.33-96.95-.02-27.33-.3-47.88-21.16-48.06-48.46-.21-32.15-.22-64.31,0-96.46.18-27.12,20.44-47.98,47.6-48.38,32.64-.48,65.3-.44,97.94-.02,27.37.36,47.6,21.31,47.84,48.68.14,15.99.03,31.99.03,47.98-.08,0-.17,0-.25,0Z"/>
        <path d="M1505.42,192.89c0,17.33.05,34.66-.01,51.98-.1,26.93-17.57,44.42-44.45,44.46-34.65.05-69.31.04-103.96,0-26.89-.03-44.41-17.53-44.46-44.44-.06-34.66-.06-69.31,0-103.97.05-26.93,17.55-44.42,44.44-44.46,34.65-.06,69.31-.05,103.96,0,26.91.04,44.37,17.52,44.46,44.45.06,17.33.01,34.66.01,51.98Z"/>
        <path d="M1090.84,1047.44c-15.5,0-31,.06-46.5-.01-29.29-.14-49.67-20.38-49.8-49.68-.14-31.17-.13-62.33,0-93.5.12-29.3,20.47-49.57,49.79-49.68,31.16-.11,62.33-.13,93.49,0,29.02.13,49.38,20.41,49.54,49.42.17,31.33.17,62.67,0,94-.16,29.02-20.55,49.26-49.53,49.43-15.66.09-31.33.02-47,.02Z"/>
      </g>
    </g>
  </g>
</svg>