<?xml version="1.0" encoding="UTF-8"?>
<svg xmlns="http://www.w3.org/2000/svg" version="1.1" viewBox="0 0 1454 964">
  <!-- Generator: Adobe Illustrator 28.7.2, SVG Export Plug-In . SVG Version: 1.2.0 Build 154)  -->
  <g>
    <g id="Layer_1">
      <g>
        <path d="M1167.96,485.51c0,14.99-.63,30.02.15,44.98,1.1,20.93-20.15,42.01-37.82,41.97-33.97-.07-67.94-.14-101.92-.24-15.32-.05-35.53-20.32-35.61-35.99-.06-12.49-.63-24.97-.6-37.46.04-21.49.5-42.97.52-64.45.01-16.37,19.99-37.38,39.4-37.24,32.15.22,64.31.15,96.46.03,19.45-.07,40.17,20.89,39.5,40.92-.53,15.81-.11,31.65-.11,47.48h.02Z"/>
        <path d="M761.38,345.95c-13.83,0-27.69-.59-41.48.14-18.18.97-38.39-19.37-37.98-37.72.62-27.98.63-55.98,0-83.96-.4-17.78,18.39-37.1,34.43-37.55,2.16-.06,4.32-.4,6.48-.4,25.99-.03,51.99.46,77.96-.16,22.05-.53,41.61,19.26,41.02,41.3-.69,26.14,0,52.31-.24,78.46-.19,19.39-13.27,35.78-30.77,39.21-2.59.51-5.29.64-7.94.65-13.83.06-27.66.03-41.48.03Z"/>
        <path d="M471.28,633.84c14.33,0,28.67.42,42.98-.11,17.43-.64,36.24,18.46,36.11,33.8-.02,2.16.34,4.32.35,6.48.03,25.99-.61,52,.21,77.97.71,22.52-19.1,41.48-40.62,40.61-25.95-1.05-51.98-.56-77.97-.11-13.89.24-24.38-5.27-32.91-15.68-4.62-5.64-7.22-12.09-7.26-19.27-.15-29.65-.01-59.31-.08-88.96-.04-16.61,18.73-35.23,35.71-34.79,14.48.37,28.99.08,43.48.08,0,0,0-.01,0-.02Z"/>
        <path d="M1083.24,258.38c0,12.83-.52,25.69.12,38.49.93,18.62-17.58,36.88-36.11,36.48-25.82-.55-51.67-.61-77.48.03-18.71.46-36.58-18.15-36.29-34.25.51-28.14.29-56.3.33-84.45.02-13.43,16.83-30.26,29.72-30.87,2.83-.13,5.65-.53,8.47-.54,24.16-.04,48.33.25,72.49-.14,13.47-.21,23.78,5.01,32.02,15.29,4.59,5.73,6.6,12.28,6.66,19.46.1,13.5.03,27,.03,40.49.02,0,.03,0,.05,0Z"/>
        <path d="M784.02,876.11c-11.82,0-23.67-.47-35.46.11-19.11.95-36.49-16.65-35.87-36.09.74-23.29.77-46.64,0-69.92-.65-19.39,16.67-36.9,36.27-36.27,23.29.75,46.64.73,69.93,0,19.38-.6,36.73,16.62,36.14,36.4-.69,23.13-.68,46.3,0,69.43.59,20.07-16.88,37.45-36.04,36.45-11.62-.61-23.31-.11-34.96-.11Z"/>
        <path d="M152.44,393.77c13.32,0,26.64.23,39.95-.06,13.09-.29,30.01,16.84,29.93,29.54-.12,20.31.28,40.62.37,60.94.03,6.32-.47,12.65-.3,18.97.36,13.59-16.2,30.79-31.56,30.7-25.65-.15-51.29-.08-76.94-.03-15.22.03-31.9-16.29-31.76-32.72.21-24.98.25-49.96,0-74.94-.17-16.41,17.2-33.05,31.85-32.6,12.81.39,25.64.08,38.46.08,0,.04,0,.09,0,.13Z"/>
      </g>
    </g>
  </g>
</svg>