<?xml version="1.0" encoding="UTF-8"?>
<svg xmlns="http://www.w3.org/2000/svg" version="1.1" viewBox="0 0 872 1292">
  <!-- Generator: Adobe Illustrator 28.7.2, SVG Export Plug-In . SVG Version: 1.2.0 Build 154)  -->
  <g>
    <g id="Layer_1">
      <g>
        <path d="M84,893.77c0-15.33.94-30.73-.24-45.97-1.46-18.75,20-40.23,36.93-40.82,7.66-.27,15.31-.59,22.97-.61,23.16-.06,46.33.35,69.48-.09,16.07-.31,28.81,5.49,38.81,17.85,4.99,6.16,7.97,13.11,7.98,21.07.07,32.49-.31,64.99.17,97.47.25,16.96-19.76,37.86-34.68,38.09-35.62.53-71.26.51-106.89.02-14.97-.21-35.93-21.59-34.76-39.52,1.02-15.76.21-31.64.21-47.47Z"/>
        <path d="M521.81,885.13c0-11.66.65-23.37-.14-34.98-1.24-18.18,15.6-35.98,33.44-35.8,26.31.27,52.63.4,78.94.42,12.37.01,29.17,16.5,29.15,29.26-.02,15.16.33,30.31.41,45.47.06,10.66-.45,21.34.01,31.98.83,18.82-17.4,35.65-35.93,34.97-23.29-.86-46.67-.87-69.96,0-19.1.71-37.44-16.75-36.08-36.35.81-11.61.15-23.32.15-34.98Z"/>
        <path d="M181,494.39c-11.33,0-22.66-.31-33.98.08-14.32.48-29.81-14.82-29.72-28.91.15-23.15.14-46.31-.02-69.46-.1-14.6,15.71-29.59,30.5-29.24,21.98.52,43.99.56,65.96-.03,15.12-.4,31.07,14.13,31.04,29.77-.04,22.65-.08,45.31.03,67.96.08,15.56-15.6,30.48-30.33,29.94-11.15-.41-22.32-.08-33.48-.08,0-.01,0-.02,0-.03Z"/>
        <path d="M491.01,730.16c-10.66,0-21.33-.45-31.96.1-14.41.74-29.83-14.77-29.4-29.35.62-21.13.62-42.3,0-63.43-.42-14.37,14.28-29.71,29.32-29.44,21.14.38,42.29.38,63.43,0,14.69-.27,29.44,14.17,29.33,28.36-.18,21.81-.21,43.62.01,65.43.15,14.49-15.32,29.27-29.76,28.44-10.29-.59-20.64-.11-30.96-.12Z"/>
      </g>
    </g>
  </g>
</svg>